<?xml version="1.0" encoding="iso-8859-1"?>
<!-- Uploaded to: SVG Repo, www.svgrepo.com, Generator: SVG Repo Mixer Tools -->
<svg fill="#FFFFFF" height="800px" width="800px" version="1.1" id="Layer_1" xmlns="http://www.w3.org/2000/svg" xmlns:xlink="http://www.w3.org/1999/xlink" 
	 viewBox="0 0 512 512" xml:space="preserve">
<g>
	<g>
		<path d="M439.592,181.278c0.004-0.165-0.006-0.326-0.006-0.49c-0.732-49.584-20.33-116.704-50.37-172.055
			C386.296,3.351,380.664,0,374.542,0H137.395c-6.122,0-11.754,3.351-14.674,8.733C95.359,59.149,76.663,119.328,72.99,167.129
			c-0.012,0.129-0.021,0.259-0.031,0.39c-8.008,106.463,70.191,190.316,166.312,199.02v112.07h-66.783
			c-9.22,0-16.696,7.475-16.696,16.696S163.268,512,172.488,512h166.956c9.22,0,16.696-7.475,16.696-16.696
			s-7.475-16.696-16.696-16.696h-66.783V366.537C366.515,358.039,440.785,278.449,439.592,181.278z M147.482,33.391h216.974
			c19.964,39.237,34.522,84.605,39.699,122.418c-23.403-8.503-49.703-7.14-72.175,4.097c-16.234,8.115-35.616,8.115-51.85,0
			c-25.583-12.793-56.132-12.793-81.715,0c-16.234,8.114-35.616,8.117-51.85-0.001c-11.854-5.927-24.852-9.151-37.98-9.572
			C114.362,113.671,128.473,70.751,147.482,33.391z M255.969,333.913c-82.849,0-150.253-67.399-150.261-150.248
			c8.948,0.007,17.854,2.071,25.925,6.106c25.583,12.793,56.132,12.793,81.715,0c16.234-8.115,35.616-8.115,51.85,0
			c25.58,12.792,56.131,12.793,81.715,0c16.233-8.115,35.616-8.116,51.85,0.001c2.342,1.171,4.735,2.237,7.168,3.202
			C401.101,271.502,335.692,333.913,255.969,333.913z"/>
	</g>
</g>
<g>
	<g>
		<circle cx="294.924" cy="272.696" r="16.696"/>
	</g>
</g>
<g>
	<g>
		<circle cx="217.011" cy="239.304" r="16.696"/>
	</g>
</g>
</svg>
