<?xml version="1.0" encoding="iso-8859-1"?>
<!DOCTYPE svg PUBLIC "-//W3C//DTD SVG 1.1//EN" "http://www.w3.org/Graphics/SVG/1.1/DTD/svg11.dtd">
<svg height="20px" width="20px" version="1.1" id="Capa_1" xmlns="http://www.w3.org/2000/svg" xmlns:xlink="http://www.w3.org/1999/xlink" 
	 viewBox="0 0 55.608 55.608" xml:space="preserve">
<g>
	<path fill="#FFFFFF" d="M47.719,25.897c-0.13,2.699-0.378,5.205-0.323,7.705c0.031,1.454-0.346,2.4-1.47,3.357
		c-4.06,3.457-8.028,7.022-11.995,10.587c-1.466,1.317-2.912,1.858-4.924,1.094c-7.148-2.716-14.334-5.337-21.545-7.882
		c-1.398-0.494-2.019-1.16-1.836-2.607c0.05-0.395-0.024-0.803-0.022-1.204c0.018-3.053-0.178-5.822-4.228-6.317
		c-1.393-0.17-1.748-1.64-0.975-3.169c1.089-2.152,2.471-4.159,3.516-6.329c1.56-3.239,3.482-5.678,7.152-7.092
		c4.183-1.612,8.021-4.193,11.855-6.599c1.583-0.993,3.019-0.983,4.574-0.522c5.491,1.627,10.946,3.38,16.451,4.964
		c2.492,0.717,4.611,1.788,6.239,3.906c1.405,1.828,3.13,3.406,4.621,5.173c1.254,1.486,1.048,2.209-0.748,2.853
		C52.081,24.525,50.063,25.133,47.719,25.897z M24.383,35.273c1.98-3.192,3.42-6.198,4.415-9.54
		c-0.64-0.188-1.024-0.282-1.396-0.413c-4.436-1.567-8.988-2.784-13.117-5.202c-1.655-0.969-3.726-1.227-5.702-1.837
		c-1.967,3.453-3.738,6.563-5.717,10.036C10.276,30.712,17.293,32.981,24.383,35.273z M32.842,43.969
		c0.262,0.096,0.523,0.191,0.785,0.287c2.893-2.461,5.737-4.98,8.697-7.357c1.445-1.161,2.275-2.531,2.3-4.344
		c0.056-4.213,0.072-8.426,0.064-12.638c-0.002-0.861-0.186-1.722-0.341-3.06c-3.658,2.269-6.935,4.329-10.241,6.338
		c-1.102,0.67-1.342,1.629-1.331,2.809c0.044,4.622,0.049,9.244,0.065,13.867C32.846,41.238,32.842,42.603,32.842,43.969z
		 M8.694,33.027c-0.833,4.561-0.841,4.576,2.656,6.237c0.995,0.473,2.032,0.864,3.072,1.231c4.177,1.472,8.356,2.939,12.551,4.357
		c0.91,0.308,1.891,0.407,3.063,0.647c0-5.018,0-9.665,0-14.313c-1.231,1.459-2.005,3.047-2.81,4.619
		c-1.045,2.043-2.557,2.728-4.669,2.052c-1.531-0.489-3.024-1.099-4.543-1.627C14.989,35.178,11.957,34.147,8.694,33.027z
		 M26.761,10.448c-0.119,3.292-0.406,6.39-0.29,9.474c0.102,2.693,1.958,3.706,4.299,2.387c3.657-2.061,7.191-4.34,10.763-6.551
		c0.407-0.253,0.717-0.662,1.09-1.017C40.76,13.461,29.85,10.463,26.761,10.448z M23.579,21.402
		c-0.192-4.132,0.597-7.473-0.149-10.891c-6.026,2.417-9.44,4.38-10.442,6.023C16.326,18.07,19.649,19.596,23.579,21.402z
		 M47.552,22.128c1.538,0.099,2.77,0.619,4.009-0.596c-1.274-1.403-2.442-2.69-4.009-4.412
		C47.552,19.089,47.552,20.419,47.552,22.128z"/>
	<path fill="#FFFFFF" d="M41.895,29.883c0.982,1.064,0.719,1.808-0.033,2.274c-1.774,1.104-3.602,2.127-5.441,3.12
		c-0.888,0.479-1.514,0.101-1.948-1.195C36.932,32.692,39.436,31.275,41.895,29.883z"/>
	<path fill="#FFFFFF" d="M42.233,23.582c-0.194,0.444-0.262,1.042-0.585,1.26c-1.749,1.181-3.531,2.319-5.375,3.341
		c-0.388,0.214-1.08-0.124-1.632-0.207c0.193-0.494,0.244-1.171,0.604-1.448c1.192-0.921,2.468-1.746,3.767-2.514
		C39.925,23.475,40.87,22.726,42.233,23.582z"/>
	<path fill="#FFFFFF" d="M34.063,32.33c-0.211-2.588,1.454-2.774,2.534-3.35c0.33-0.176,1.037,0.357,1.571,0.565
		c0.009,0.223,0.018,0.445,0.026,0.668C36.964,30.843,35.732,31.474,34.063,32.33z"/>
</g>
</svg>
